<svg width="128" height="128" viewBox="0 0 128 128" fill="none" xmlns="http://www.w3.org/2000/svg">
<rect width="128" height="128" rx="20" fill="white"/>
<path d="M30 55.5C30.6642 55.1679 31.3665 54.9185 32.0914 54.7575L33.3788 54.4714C33.7849 54.3811 33.988 54.336 34.1916 54.2963C35.0653 54.1258 35.9517 54.0285 36.8415 54.0054C37.0489 54 37.2569 54 37.6729 54H38.5H41C42.3196 54 43.6254 54.268 44.8383 54.7878L46.5 55.5L50.5 57.5L52.317 58.75C52.9252 59.1684 53.2293 59.3777 53.523 59.6003C53.9085 59.8925 54.2806 60.2021 54.6381 60.5281C54.9104 60.7764 55.1714 61.0374 55.6935 61.5595L56.134 62C57.3082 62.9926 57.8954 63.4889 58.4314 64.0382C58.4409 64.048 58.4504 64.0577 58.4599 64.0675C58.9946 64.6182 59.4748 65.2185 60.4354 66.4192L60.5 66.5L62.5 69L64 71.5L66 75L68 80C68.1029 80.3088 68.1544 80.4632 68.2027 80.6185C68.3863 81.2092 68.5356 81.8102 68.6497 82.4182C68.6797 82.578 68.7064 82.7385 68.7599 83.0596L69 84.5L69.5 87.5L69.7575 88.5299C69.9185 89.1742 70 89.8358 70 90.5V90.8599C70 92.2564 70 92.9546 69.9396 93.6475C69.8913 94.203 69.8139 94.7557 69.7078 95.3031C69.5755 95.9859 69.3836 96.6573 69 98L68 101L74 96.5L75.7557 94.9951C76.6275 94.2479 77.0634 93.8743 77.471 93.4707C77.8787 93.0672 78.2567 92.6352 79.0128 91.771L81 89.5L83.2939 86.0592C84.1393 84.7911 84.562 84.1571 84.922 83.4868C84.93 83.472 84.9379 83.4572 84.9458 83.4424C85.3037 82.7711 85.5968 82.0676 86.183 80.6608L86.3288 80.3108C86.8355 79.0947 87.0889 78.4866 87.2911 77.8612C87.3743 77.6039 87.4509 77.3445 87.521 77.0833C87.6912 76.4484 87.809 75.8003 88.0447 74.504C88.2418 73.4203 88.3403 72.8784 88.4013 72.3319C88.4264 72.107 88.4467 71.8816 88.4622 71.6558C88.5 71.1072 88.5 70.5564 88.5 69.4549V68.3854C88.5 66.9437 88.5 66.2228 88.4353 65.5058C88.3707 64.7888 88.2417 64.0796 87.9838 62.6611L87.5 60L86 54.5L85.6115 52.5574C85.5373 52.1867 85.5 51.8096 85.5 51.4316C85.5 50.8146 85.5995 50.2016 85.7946 49.6162L85.8179 49.5462C85.939 49.1829 86.0936 48.8315 86.2796 48.4967L88.3265 44.8124C88.4416 44.6051 88.585 44.415 88.7527 44.2473L89.1464 43.8536C89.3728 43.6272 89.6799 43.5 90 43.5H91H91.2929C91.7456 43.5 92.1799 43.3201 92.5 43L93 42.5L93.5 42V41.5V40.5V40V39.8536C93.5 39.6272 93.5899 39.4101 93.75 39.25C93.9101 39.0899 94.1272 39 94.3536 39H95H96H96.5H96.8374C97.2732 39 97.7029 38.8986 98.0926 38.7037C98.3624 38.5688 98.6087 38.3913 98.8221 38.1779L99.5 37.5L99.7094 37.2906C100.233 36.7669 100.669 36.1623 101 35.5L103 31L107 23L93.6325 29.6838C93.2136 29.8932 92.8312 30.1688 92.5 30.5L91.8221 31.1779C91.6087 31.3913 91.4312 31.6376 91.2963 31.9074C91.1014 32.2971 91 32.7268 91 33.1626V33.5V34V35.5C91 35.8201 90.8728 36.1272 90.6464 36.3536L90.6407 36.3593C90.5475 36.4525 90.4399 36.5301 90.322 36.589L90.0926 36.7037C89.7029 36.8986 89.2732 37 88.8374 37H88.5C88.1799 37 87.8728 37.1272 87.6464 37.3536L87.5 37.5L87 38L86.8536 38.1464C86.6272 38.3728 86.5 38.6799 86.5 39C86.5 39.3288 86.5766 39.6531 86.7236 39.9472L86.9188 40.3377C86.9722 40.4444 87 40.5621 87 40.6815C87 40.8854 86.919 41.081 86.7748 41.2252L86.5 41.5C86.1688 41.8312 85.7864 42.1068 85.3675 42.3162L85 42.5L84 43L80.9363 44.1489C80.3172 44.3811 79.6613 44.5 79 44.5H78C77.3424 44.5 76.6938 44.3469 76.1056 44.0528L76 44C75.3342 43.6671 74.6456 43.3819 73.9393 43.1464L73.5 43L72 42.5L70.5 42L68.5 41.5H67H65.5H64H61.5H60L56.7259 41.7519C55.1143 41.8758 54.3085 41.9378 53.5144 42.0803C52.7203 42.2228 51.9432 42.4448 50.3891 42.8888L50 43L46.1575 44.2808C45.0792 44.6403 44.54 44.82 44.0154 45.0373C43.4908 45.2546 42.9825 45.5087 41.9659 46.017L41 46.5L38.5 48C37.8347 48.3327 37.2007 48.7245 36.6056 49.1708L36.0657 49.5757C35.689 49.8582 35.3329 50.1671 35 50.5L31.3356 53.7572C30.7836 54.2479 30.3303 54.8394 30 55.5Z" fill="#0C2344"/>
<path d="M61.5 68L56 73.5L50.5 79L50 79.5V80.5V81.5V82L48.5 83L47.5 83.5H46.5L45.5 84.5V85V88.5L45 89.5L44 90.5L42 91.5L37.5 93L29 98L33.5 90L36.5 83L37 82.5L39 81.5H42.5L44 80V78.5L45.5 77H48L60 65L62 67.5L61.5 68Z" fill="#0C2344"/>
<path d="M80.5 99.5C80.544 99.4741 80.5885 99.4477 80.6334 99.4211C82.5804 98.2652 83.5539 97.6873 85.1154 96.488C85.1929 96.4285 85.3324 96.3201 85.4093 96.2597C86.9571 95.0429 88.1381 93.8619 90.5 91.5C90.5 91.5 94.2489 86.8627 96 83.5C96.8882 81.7943 97.4039 80.8284 98 79C98.558 77.2884 98.6095 76.2574 99 74.5C99.2139 73.5375 99.3208 73.0562 99.4132 72.5733C99.7419 70.8537 99.9332 69.1107 99.9853 67.3607C100 66.8692 100 66.3762 100 65.3902V65C99.8305 63.4743 99.7457 62.7115 99.6259 61.9547C99.4745 60.9991 99.2812 60.0507 99.0465 59.112C98.8606 58.3687 98.6401 57.6336 98.199 56.1633L98 55.5L99.5246 57.678C100.441 58.9871 100.899 59.6417 101.279 60.3418C101.356 60.4838 101.431 60.6272 101.503 60.7718C101.858 61.4846 102.131 62.2355 102.677 63.7373C103.059 64.7878 103.25 65.3131 103.399 65.851C103.429 65.9602 103.457 66.0697 103.485 66.1796C103.62 66.721 103.712 67.2723 103.896 68.3748L104.119 69.7168C104.309 70.8564 104.404 71.4263 104.452 72.0013C104.452 72.0031 104.452 72.0048 104.453 72.0065C104.5 72.5816 104.5 73.1593 104.5 74.3147C104.5 75.9039 104.5 76.6984 104.41 77.4862C104.41 77.4886 104.41 77.4909 104.41 77.4933C104.32 78.2811 104.141 79.0553 103.784 80.6037L103.631 81.2649C103.316 82.6313 103.158 83.3145 102.934 83.9775C102.709 84.6404 102.419 85.2787 101.838 86.5554L100.5 89.5C100.5 89.5 98.9801 92.5519 97.5 94.5C96.1636 96.259 93.5 99 93.5 99L90.4224 101.462C89.4618 102.231 88.9815 102.615 88.4701 102.955C87.9587 103.295 87.4187 103.59 86.3388 104.179L84.8542 104.989C83.9275 105.494 83.4642 105.747 82.9836 105.964C82.5031 106.181 82.0071 106.361 81.0151 106.722L77.5 108L73.79 108.928C72.6457 109.214 72.0735 109.357 71.492 109.451C70.9106 109.545 70.3225 109.591 69.1465 109.681L67.137 109.836C66.0743 109.917 65.5429 109.958 65.0105 109.959C65.0035 109.959 64.9965 109.959 64.9895 109.959C64.4571 109.958 63.9257 109.917 62.863 109.836C60.6966 109.669 59.6134 109.586 58.5602 109.338C58.5464 109.335 58.5326 109.331 58.5189 109.328C57.4664 109.077 56.4609 108.666 54.4499 107.843L47.5 105L49.3824 105.513C51.1885 106.006 52.0916 106.252 53.0166 106.376C53.9416 106.5 54.8776 106.5 56.7497 106.5H58.5L61.5455 106.223C62.772 106.112 63.3852 106.056 63.9904 105.947C64.5956 105.838 65.1897 105.676 66.3778 105.352L69.5 104.5L75 102.5C75 102.5 78.392 100.742 80.5 99.5Z" fill="#0C2344"/>
<path d="M19.5 74.5C19.5 72.4855 19.5 71.4783 19.5774 70.4777C19.6522 69.5102 19.7811 68.5478 19.9634 67.5948C20.1521 66.609 20.4171 65.6373 20.9471 63.6938L21 63.5C21.5643 61.6191 21.8464 60.6786 22.1974 59.7649C22.5033 58.9682 22.8484 58.1871 23.2312 57.4244C23.6702 56.5496 24.1754 55.7076 25.1857 54.0238L25.5 53.5L25.6438 53.2842C27.0708 51.1439 27.7842 50.0737 28.5983 49.0806C29.4124 48.0876 30.3219 47.1781 32.1409 45.3591L32.5 45L36 42L37.8616 40.6969C39.4301 39.5989 40.2143 39.05 41.0361 38.5605C41.8578 38.0711 42.714 37.643 44.4265 36.7867L46 36L51.5 34L56.5 32.5L59.1865 32.0116C59.6929 31.9195 59.9462 31.8734 60.1998 31.8325C61.4009 31.6385 62.6142 31.5291 63.8306 31.5051C64.0875 31.5 64.3449 31.5 64.8597 31.5C65.4249 31.5 65.7075 31.5 65.9894 31.5061C67.3245 31.5351 68.6555 31.6669 69.9703 31.9003C70.248 31.9496 70.5251 32.005 71.0793 32.1159L73 32.5L65.2556 30.2412C65.0769 30.1891 64.9875 30.163 64.8985 30.1377C62.3127 29.4035 59.6287 29.0747 56.9422 29.163C56.8497 29.166 56.7566 29.1697 56.5706 29.1772L55.2261 29.231C50.7747 29.409 46.3863 30.3455 42.25 32C42.25 32 38.3761 33.3754 36 34.5C35.06 34.9449 33.9253 35.5537 32.9314 36.1065C32.9104 36.1182 32.9628 36.089 32.8056 36.1794C31.5547 36.8982 29.8511 38.1071 28.7596 39.0504C28.6223 39.169 28.5499 39.2334 28.405 39.3622C28.1335 39.6035 27.9978 39.7242 27.8641 39.8464C26.6427 40.963 25.5306 42.1936 24.5431 43.5216C24.435 43.6669 24.3287 43.8141 24.116 44.1086L23.1111 45.5L22.9985 45.6559C22.0698 46.9418 21.6055 47.5847 21.1829 48.2517C20.4102 49.4711 19.7405 50.7528 19.1806 52.0834C18.8744 52.8112 18.6117 53.5595 18.0864 55.0561L17.8853 55.6289C17.4687 56.8157 17.2604 57.4091 17.082 58.0081C16.4839 60.016 16.1307 62.0888 16.03 64.1814C16 64.8056 16 65.4465 16 66.7282C16 67.4179 16 67.7628 16.0088 68.1C16.0415 69.3612 16.166 70.6183 16.3812 71.8614C16.4387 72.1937 16.505 72.5252 16.6376 73.1882L17.0301 75.1507C17.342 76.71 17.8603 78.2206 18.5714 79.6429C19.1884 80.8768 19.946 82.0353 20.8292 83.0951L22 84.5L21.8662 84.1655C21.366 82.9149 21.1158 82.2896 20.8992 81.6549C20.4014 80.1965 20.0343 78.6968 19.8021 77.1735C19.701 76.5105 19.634 75.8403 19.5 74.5Z" fill="#0C2344"/>
</svg>
